<svg 
  width="546" 
  height="439" 
  version="1.1"
  fill="none"
>
  <path fill="rgb(189,194,196)" stroke="rgb(189,194,196)" stroke-width="1" opacity="1" d="M 330.5 10 L 330 11.5 L 329.5 14 L 329 11.5 L 330.5 10 Z " />
  <path fill="rgb(189,194,196)" stroke="rgb(189,194,196)" stroke-width="1" opacity="1" d="M 353.5 11 L 354 13.5 L 353 13.5 L 353.5 11 Z " />
  <path fill="rgb(189,194,196)" stroke="rgb(189,194,196)" stroke-width="1" opacity="1" d="M 352.5 21 L 353 349.5 L 352 349.5 L 352.5 21 Z " />
  <path fill="rgb(189,194,196)" stroke="rgb(189,194,196)" stroke-width="1" opacity="1" d="M 68.5 46 L 85 46.5 L 68.5 47 L 68.5 46 Z " />
  <path fill="rgb(189,194,196)" stroke="rgb(189,194,196)" stroke-width="1" opacity="1" d="M 480.5 48 L 481.5 50 L 480.5 48 Z " />
  <path fill="rgb(189,194,196)" stroke="rgb(189,194,196)" stroke-width="1" opacity="1" d="M 488.5 56 L 489.5 58 L 488.5 56 Z " />
  <path fill="rgb(189,194,196)" stroke="rgb(189,194,196)" stroke-width="1" opacity="1" d="M 70.5 57 L 71.5 59 L 70.5 57 Z " />
  <path fill="rgb(189,194,196)" stroke="rgb(189,194,196)" stroke-width="1" opacity="1" d="M 77.5 62 L 84.5 70 L 77.5 62 Z " />
  <path fill="rgb(189,194,196)" stroke="rgb(189,194,196)" stroke-width="1" opacity="1" d="M 452.5 62 L 451.5 64 L 449 63.5 L 452.5 62 Z " />
  <path fill="rgb(189,194,196)" stroke="rgb(189,194,196)" stroke-width="1" opacity="1" d="M 95.5 75 L 97 78.5 L 95 77.5 L 95.5 75 Z " />
  <path fill="rgb(189,194,196)" stroke="rgb(189,194,196)" stroke-width="1" opacity="1" d="M 500.5 80 L 499.5 82 L 500.5 80 Z " />
  <path fill="rgb(189,194,196)" stroke="rgb(189,194,196)" stroke-width="1" opacity="1" d="M 452.5 84 L 453.5 86 L 452.5 84 Z " />
  <path fill="rgb(189,194,196)" stroke="rgb(189,194,196)" stroke-width="1" opacity="1" d="M 491.5 88 L 490.5 90 L 491.5 88 Z " />
  <path fill="rgb(189,194,196)" stroke="rgb(189,194,196)" stroke-width="1" opacity="1" d="M 143.5 89 L 145.5 92 L 143.5 89 Z " />
  <path fill="rgb(189,194,196)" stroke="rgb(189,194,196)" stroke-width="1" opacity="1" d="M 485.5 95 L 484.5 97 L 485.5 95 Z " />
  <path fill="rgb(189,194,196)" stroke="rgb(189,194,196)" stroke-width="1" opacity="1" d="M 114.5 99 L 115.5 101 L 114.5 99 Z " />
  <path fill="rgb(189,194,196)" stroke="rgb(189,194,196)" stroke-width="1" opacity="1" d="M 162.5 114 L 163.5 116 L 162.5 114 Z " />
  <path fill="rgb(189,194,196)" stroke="rgb(189,194,196)" stroke-width="1" opacity="1" d="M 456.5 115 L 431.5 141 L 456.5 115 Z " />
  <path fill="rgb(189,194,196)" stroke="rgb(189,194,196)" stroke-width="1" opacity="1" d="M 502.5 115 L 503.5 117 L 502.5 115 Z " />
  <path fill="rgb(189,194,196)" stroke="rgb(189,194,196)" stroke-width="1" opacity="1" d="M 507.5 121 L 508 138.5 L 507 138.5 L 507.5 121 Z " />
  <path fill="rgb(189,194,196)" stroke="rgb(189,194,196)" stroke-width="1" opacity="1" d="M 121.5 137 L 122 139.5 L 121 139.5 L 121.5 137 Z " />
  <path fill="rgb(189,194,196)" stroke="rgb(189,194,196)" stroke-width="1" opacity="1" d="M 446.5 158 L 447 162.5 L 446 162.5 L 446.5 158 Z " />
  <path fill="rgb(189,194,196)" stroke="rgb(189,194,196)" stroke-width="1" opacity="1" d="M 112.5 162 L 113 182.5 L 112 182.5 L 112.5 162 Z " />
  <path fill="rgb(189,194,196)" stroke="rgb(189,194,196)" stroke-width="1" opacity="1" d="M 450.5 175 L 451 342.5 L 450 342.5 L 450.5 175 Z " />
  <path fill="rgb(189,194,196)" stroke="rgb(189,194,196)" stroke-width="1" opacity="1" d="M 126.5 192 L 125.5 194 L 126.5 192 Z " />
  <path fill="rgb(189,194,196)" stroke="rgb(189,194,196)" stroke-width="1" opacity="1" d="M 508.5 265 L 509 306.5 L 508 306.5 L 508.5 265 Z " />
  <path fill="rgb(189,194,196)" stroke="rgb(189,194,196)" stroke-width="1" opacity="1" d="M 146.5 303 L 144.5 306 L 146.5 303 Z " />
  <path fill="rgb(189,194,196)" stroke="rgb(189,194,196)" stroke-width="1" opacity="1" d="M 65.5 310 L 64.5 312 L 65.5 310 Z " />
  <path fill="rgb(189,194,196)" stroke="rgb(189,194,196)" stroke-width="1" opacity="1" d="M 36.5 327 L 35.5 329 L 36.5 327 Z " />
  <path fill="rgb(189,194,196)" stroke="rgb(189,194,196)" stroke-width="1" opacity="1" d="M 53.5 327 L 54 334.5 L 53 334.5 L 53.5 327 Z " />
  <path fill="rgb(189,194,196)" stroke="rgb(189,194,196)" stroke-width="1" opacity="1" d="M 32.5 332 L 31.5 334 L 32.5 332 Z " />
  <path fill="rgb(189,194,196)" stroke="rgb(189,194,196)" stroke-width="1" opacity="1" d="M 28.5 337 L 27.5 339 L 28.5 337 Z " />
  <path fill="rgb(189,194,196)" stroke="rgb(189,194,196)" stroke-width="1" opacity="1" d="M 69.5 337 L 72 337.5 L 69.5 338 L 69.5 337 Z " />
  <path fill="rgb(189,194,196)" stroke="rgb(189,194,196)" stroke-width="1" opacity="1" d="M 22.5 344 L 20.5 347 L 22.5 344 Z " />
  <path fill="rgb(189,194,196)" stroke="rgb(189,194,196)" stroke-width="1" opacity="1" d="M 13.5 353 L 11.5 356 L 13.5 353 Z " />
  <path fill="rgb(189,194,196)" stroke="rgb(189,194,196)" stroke-width="1" opacity="1" d="M 438.5 370 L 437.5 372 L 438.5 370 Z " />
  <path fill="rgb(189,194,196)" stroke="rgb(189,194,196)" stroke-width="1" opacity="1" d="M 291.5 372 L 292 373.5 L 284 380.5 L 291.5 372 Z " />
  <path fill="rgb(189,194,196)" stroke="rgb(189,194,196)" stroke-width="1" opacity="1" d="M 367.5 373 L 368.5 375 L 367.5 373 Z " />
  <path fill="rgb(189,194,196)" stroke="rgb(189,194,196)" stroke-width="1" opacity="1" d="M 253.5 374 L 258 374.5 L 253.5 375 L 253.5 374 Z " />
  <path fill="rgb(189,194,196)" stroke="rgb(189,194,196)" stroke-width="1" opacity="1" d="M 265.5 381 L 264.5 383 L 265.5 381 Z " />
  <path fill="rgb(189,194,196)" stroke="rgb(189,194,196)" stroke-width="1" opacity="1" d="M 141.5 389 L 144 389.5 L 141.5 390 L 141.5 389 Z " />
  <path fill="rgb(189,194,196)" stroke="rgb(189,194,196)" stroke-width="1" opacity="1" d="M 135.5 392 L 141 392.5 L 135.5 393 L 135.5 392 Z " />
  <path fill="rgb(189,194,196)" stroke="rgb(189,194,196)" stroke-width="1" opacity="1" d="M 524.5 392 L 528 392.5 L 524.5 393 L 524.5 392 Z " />
  <path fill="rgb(189,194,196)" stroke="rgb(189,194,196)" stroke-width="1" opacity="1" d="M 239.5 403 L 232.5 411 L 239.5 403 Z " />
  <path fill="rgb(189,194,196)" stroke="rgb(189,194,196)" stroke-width="1" opacity="1" d="M 451.5 403 L 452.5 405 L 451.5 403 Z " />
  <path fill="rgb(189,194,196)" stroke="rgb(189,194,196)" stroke-width="1" opacity="1" d="M 115.5 406 L 114.5 408 L 115.5 406 Z " />
  <path fill="rgb(189,194,196)" stroke="rgb(189,194,196)" stroke-width="1" opacity="1" d="M 459.5 410 L 460.5 412 L 459.5 410 Z " />
  <path fill="rgb(189,194,196)" stroke="rgb(189,194,196)" stroke-width="1" opacity="1" d="M 8.5 411 L 9.5 413 L 8.5 411 Z " />
  <path fill="rgb(189,194,196)" stroke="rgb(189,194,196)" stroke-width="1" opacity="1" d="M 310.5 414 L 313 415.5 L 312.5 417 L 312 415 L 310.5 414 Z " />
  <path fill="rgb(189,194,196)" stroke="rgb(189,194,196)" stroke-width="1" opacity="1" d="M 228.5 415 L 227.5 417 L 228.5 415 Z " />
  <path fill="rgb(189,194,196)" stroke="rgb(189,194,196)" stroke-width="1" opacity="1" d="M 499.5 419 L 498.5 421 L 495.5 422 L 496.5 420 L 499.5 419 Z " />
  <path fill="rgb(189,194,196)" stroke="rgb(189,194,196)" stroke-width="1" opacity="1" d="M 196.5 420 L 197.5 422 L 196.5 420 Z " />
  <path fill="rgb(189,194,196)" stroke="rgb(189,194,196)" stroke-width="1" opacity="1" d="M 223.5 421 L 222.5 423 L 223.5 421 Z " />
  <path fill="rgb(189,194,196)" stroke="rgb(189,194,196)" stroke-width="1" opacity="1" d="M 219.5 426 L 218.5 428 L 219.5 426 Z " />
  <path fill="rgb(189,194,196)" stroke="rgb(189,194,196)" stroke-width="1" opacity="1" d="M 38.5 429 L 41 429.5 L 38.5 430 L 38.5 429 Z " />
  <path fill="rgb(96,108,113)" stroke="rgb(96,108,113)" stroke-width="1" opacity="1" d="M 344.5 0 L 342.5 3 L 344.5 0 Z " />
  <path fill="rgb(96,108,113)" stroke="rgb(96,108,113)" stroke-width="1" opacity="1" d="M 352.5 0 L 353 2.5 L 352 2.5 L 352.5 0 Z " />
  <path fill="rgb(96,108,113)" stroke="rgb(96,108,113)" stroke-width="1" opacity="1" d="M 340.5 3 L 339.5 5 L 340.5 3 Z " />
  <path fill="rgb(96,108,113)" stroke="rgb(96,108,113)" stroke-width="1" opacity="1" d="M 336.5 6 L 335.5 8 L 336.5 6 Z " />
  <path fill="rgb(96,108,113)" stroke="rgb(96,108,113)" stroke-width="1" opacity="1" d="M 353.5 7 L 354 10.5 L 353 10.5 L 353.5 7 Z " />
  <path fill="rgb(96,108,113)" stroke="rgb(96,108,113)" stroke-width="1" opacity="1" d="M 333.5 8 L 331.5 11 L 333.5 8 Z " />
  <path fill="rgb(96,108,113)" stroke="rgb(96,108,113)" stroke-width="1" opacity="1" d="M 326.5 14 L 330 14.5 L 326.5 15 L 320.5 21 L 326.5 14 Z " />
  <path fill="rgb(96,108,113)" stroke="rgb(96,108,113)" stroke-width="1" opacity="1" d="M 352.5 16 L 353 20.5 L 352 20.5 L 352.5 16 Z " />
  <path fill="rgb(96,108,113)" stroke="rgb(96,108,113)" stroke-width="1" opacity="1" d="M 318.5 21 L 316.5 24 L 318.5 21 Z " />
  <path fill="rgb(96,108,113)" stroke="rgb(96,108,113)" stroke-width="1" opacity="1" d="M 314.5 24 L 312.5 27 L 314.5 24 Z " />
  <path fill="rgb(96,108,113)" stroke="rgb(96,108,113)" stroke-width="1" opacity="1" d="M 310.5 27 L 309.5 29 L 310.5 27 Z " />
  <path fill="rgb(96,108,113)" stroke="rgb(96,108,113)" stroke-width="1" opacity="1" d="M 307.5 29 L 306.5 31 L 307.5 29 Z " />
  <path fill="rgb(96,108,113)" stroke="rgb(96,108,113)" stroke-width="1" opacity="1" d="M 303.5 32 L 302.5 34 L 303.5 32 Z " />
  <path fill="rgb(96,108,113)" stroke="rgb(96,108,113)" stroke-width="1" opacity="1" d="M 300.5 34 L 299.5 36 L 300.5 34 Z " />
  <path fill="rgb(96,108,113)" stroke="rgb(96,108,113)" stroke-width="1" opacity="1" d="M 297.5 36 L 296.5 38 L 297.5 36 Z " />
  <path fill="rgb(96,108,113)" stroke="rgb(96,108,113)" stroke-width="1" opacity="1" d="M 292.5 39 L 291 41.5 L 290.5 44 L 290 41.5 L 292.5 39 Z " />
  <path fill="rgb(96,108,113)" stroke="rgb(96,108,113)" stroke-width="1" opacity="1" d="M 469.5 44 L 468.5 46 L 469.5 44 Z " />
  <path fill="rgb(96,108,113)" stroke="rgb(96,108,113)" stroke-width="1" opacity="1" d="M 475.5 45 L 480 48.5 L 476.5 46 L 475.5 45 Z " />
  <path fill="rgb(96,108,113)" stroke="rgb(96,108,113)" stroke-width="1" opacity="1" d="M 63.5 48 L 64 50.5 L 63 50.5 L 63.5 48 Z " />
  <path fill="rgb(96,108,113)" stroke="rgb(96,108,113)" stroke-width="1" opacity="1" d="M 482.5 50 L 487.5 56 L 482.5 50 Z " />
  <path fill="rgb(96,108,113)" stroke="rgb(96,108,113)" stroke-width="1" opacity="1" d="M 67.5 52 L 68 54.5 L 67 54.5 L 67.5 52 Z " />
  <path fill="rgb(96,108,113)" stroke="rgb(96,108,113)" stroke-width="1" opacity="1" d="M 461.5 52 L 464 52.5 L 460.5 54 L 461.5 52 Z " />
  <path fill="rgb(96,108,113)" stroke="rgb(96,108,113)" stroke-width="1" opacity="1" d="M 489.5 58 L 501 69.5 L 503 75.5 L 502 75.5 L 500 69.5 L 489.5 58 Z " />
  <path fill="rgb(96,108,113)" stroke="rgb(96,108,113)" stroke-width="1" opacity="1" d="M 284.5 59 L 286.5 62 L 284.5 59 Z " />
  <path fill="rgb(96,108,113)" stroke="rgb(96,108,113)" stroke-width="1" opacity="1" d="M 287.5 63 L 289.5 66 L 287.5 63 Z " />
  <path fill="rgb(96,108,113)" stroke="rgb(96,108,113)" stroke-width="1" opacity="1" d="M 447.5 67 L 446.5 69 L 447.5 67 Z " />
  <path fill="rgb(96,108,113)" stroke="rgb(96,108,113)" stroke-width="1" opacity="1" d="M 291.5 68 L 293.5 71 L 291.5 68 Z " />
  <path fill="rgb(96,108,113)" stroke="rgb(96,108,113)" stroke-width="1" opacity="1" d="M 445.5 70 L 446 72.5 L 445 72.5 L 445.5 70 Z " />
  <path fill="rgb(96,108,113)" stroke="rgb(96,108,113)" stroke-width="1" opacity="1" d="M 124.5 71 L 130.5 78 L 124.5 71 Z " />
  <path fill="rgb(96,108,113)" stroke="rgb(96,108,113)" stroke-width="1" opacity="1" d="M 89.5 72 L 90.5 74 L 89.5 72 Z " />
  <path fill="rgb(96,108,113)" stroke="rgb(96,108,113)" stroke-width="1" opacity="1" d="M 294.5 72 L 295 360.5 L 294 360.5 L 294.5 72 Z " />
  <path fill="rgb(96,108,113)" stroke="rgb(96,108,113)" stroke-width="1" opacity="1" d="M 446.5 76 Q 447.1 81.9 452 83.5 L 446 78.5 L 446.5 76 Z " />
  <path fill="rgb(96,108,113)" stroke="rgb(96,108,113)" stroke-width="1" opacity="1" d="M 101.5 81 L 102 83.5 L 101 83.5 L 101.5 81 Z " />
  <path fill="rgb(96,108,113)" stroke="rgb(96,108,113)" stroke-width="1" opacity="1" d="M 497.5 82 L 494.5 86 L 497.5 82 Z " />
  <path fill="rgb(96,108,113)" stroke="rgb(96,108,113)" stroke-width="1" opacity="1" d="M 454.5 85 L 458.5 90 L 454.5 85 Z " />
  <path fill="rgb(96,108,113)" stroke="rgb(96,108,113)" stroke-width="1" opacity="1" d="M 140.5 86 L 142.5 89 L 140.5 86 Z " />
  <path fill="rgb(96,108,113)" stroke="rgb(96,108,113)" stroke-width="1" opacity="1" d="M 489.5 90 L 485.5 95 L 489.5 90 Z " />
  <path fill="rgb(96,108,113)" stroke="rgb(96,108,113)" stroke-width="1" opacity="1" d="M 459.5 91 Q 464.8 94.8 467 101.5 L 465 100.5 L 459.5 91 Z " />
  <path fill="rgb(96,108,113)" stroke="rgb(96,108,113)" stroke-width="1" opacity="1" d="M 110.5 93 L 111.5 95 L 110.5 93 Z " />
  <path fill="rgb(96,108,113)" stroke="rgb(96,108,113)" stroke-width="1" opacity="1" d="M 146.5 93 L 148 96.5 L 147 96.5 L 146.5 93 Z " />
  <path fill="rgb(96,108,113)" stroke="rgb(96,108,113)" stroke-width="1" opacity="1" d="M 481.5 98 L 481 99.5 L 480.5 101 L 480 99.5 L 481.5 98 Z " />
  <path fill="rgb(96,108,113)" stroke="rgb(96,108,113)" stroke-width="1" opacity="1" d="M 152.5 103 L 156 104.5 L 154.5 104 Q 151.5 104.5 152.5 103 Z " />
  <path fill="rgb(96,108,113)" stroke="rgb(96,108,113)" stroke-width="1" opacity="1" d="M 481.5 103 L 483 106.5 L 481 105.5 L 481.5 103 Z " />
  <path fill="rgb(96,108,113)" stroke="rgb(96,108,113)" stroke-width="1" opacity="1" d="M 118.5 104 L 119.5 106 L 118.5 104 Z " />
  <path fill="rgb(96,108,113)" stroke="rgb(96,108,113)" stroke-width="1" opacity="1" d="M 464.5 105 L 463.5 107 L 464.5 105 Z " />
  <path fill="rgb(96,108,113)" stroke="rgb(96,108,113)" stroke-width="1" opacity="1" d="M 462.5 108 L 461.5 110 L 462.5 108 Z " />
  <path fill="rgb(96,108,113)" stroke="rgb(96,108,113)" stroke-width="1" opacity="1" d="M 459.5 112 L 457.5 115 L 459.5 112 Z " />
  <path fill="rgb(96,108,113)" stroke="rgb(96,108,113)" stroke-width="1" opacity="1" d="M 499.5 113 L 501.5 116 L 499.5 113 Z " />
  <path fill="rgb(96,108,113)" stroke="rgb(96,108,113)" stroke-width="1" opacity="1" d="M 504.5 117 L 507 120.5 L 506 120.5 L 504.5 117 Z " />
  <path fill="rgb(96,108,113)" stroke="rgb(96,108,113)" stroke-width="1" opacity="1" d="M 122.5 118 L 123 134.5 L 122 134.5 L 122.5 118 Z " />
  <path fill="rgb(96,108,113)" stroke="rgb(96,108,113)" stroke-width="1" opacity="1" d="M 507.5 139 L 508 222.5 L 507 222.5 L 507.5 139 Z " />
  <path fill="rgb(96,108,113)" stroke="rgb(96,108,113)" stroke-width="1" opacity="1" d="M 121.5 140 L 122 142.5 L 121 142.5 L 121.5 140 Z " />
  <path fill="rgb(96,108,113)" stroke="rgb(96,108,113)" stroke-width="1" opacity="1" d="M 431.5 141 L 433 145.5 L 431 144.5 L 431.5 141 Z " />
  <path fill="rgb(96,108,113)" stroke="rgb(96,108,113)" stroke-width="1" opacity="1" d="M 433.5 147 L 435.5 150 L 433.5 147 Z " />
  <path fill="rgb(96,108,113)" stroke="rgb(96,108,113)" stroke-width="1" opacity="1" d="M 130.5 194 L 135 199.5 L 130 195.5 L 130.5 194 Z " />
  <path fill="rgb(96,108,113)" stroke="rgb(96,108,113)" stroke-width="1" opacity="1" d="M 138.5 207 L 140 210.5 L 139 210.5 L 138.5 207 Z " />
  <path fill="rgb(96,108,113)" stroke="rgb(96,108,113)" stroke-width="1" opacity="1" d="M 147.5 231 L 148 233.5 L 147 233.5 L 147.5 231 Z " />
  <path fill="rgb(96,108,113)" stroke="rgb(96,108,113)" stroke-width="1" opacity="1" d="M 148.5 236 L 149 238.5 L 148 238.5 L 148.5 236 Z " />
  <path fill="rgb(96,108,113)" stroke="rgb(96,108,113)" stroke-width="1" opacity="1" d="M 149.5 241 L 150 243.5 L 149 243.5 L 149.5 241 Z " />
  <path fill="rgb(96,108,113)" stroke="rgb(96,108,113)" stroke-width="1" opacity="1" d="M 150.5 246 L 151 248.5 L 150 248.5 L 150.5 246 Z " />
  <path fill="rgb(96,108,113)" stroke="rgb(96,108,113)" stroke-width="1" opacity="1" d="M 151.5 251 L 152 253.5 L 151 253.5 L 151.5 251 Z " />
  <path fill="rgb(96,108,113)" stroke="rgb(96,108,113)" stroke-width="1" opacity="1" d="M 98.5 254 L 96.5 257 L 98.5 254 Z " />
  <path fill="rgb(96,108,113)" stroke="rgb(96,108,113)" stroke-width="1" opacity="1" d="M 95.5 258 L 94.5 260 L 95.5 258 Z " />
  <path fill="rgb(96,108,113)" stroke="rgb(96,108,113)" stroke-width="1" opacity="1" d="M 91.5 265 L 90.5 267 L 91.5 265 Z " />
  <path fill="rgb(96,108,113)" stroke="rgb(96,108,113)" stroke-width="1" opacity="1" d="M 88.5 270 L 87.5 272 L 88.5 270 Z " />
  <path fill="rgb(96,108,113)" stroke="rgb(96,108,113)" stroke-width="1" opacity="1" d="M 209.5 272 L 210 274.5 L 209 274.5 L 209.5 272 Z " />
  <path fill="rgb(96,108,113)" stroke="rgb(96,108,113)" stroke-width="1" opacity="1" d="M 69.5 275 L 72 275.5 L 68.5 277 L 69.5 275 Z " />
  <path fill="rgb(96,108,113)" stroke="rgb(96,108,113)" stroke-width="1" opacity="1" d="M 76.5 293 L 75.5 295 L 76.5 293 Z " />
  <path fill="rgb(96,108,113)" stroke="rgb(96,108,113)" stroke-width="1" opacity="1" d="M 73.5 298 L 72.5 300 L 73.5 298 Z " />
  <path fill="rgb(96,108,113)" stroke="rgb(96,108,113)" stroke-width="1" opacity="1" d="M 151.5 298 L 147.5 303 L 151.5 298 Z " />
  <path fill="rgb(96,108,113)" stroke="rgb(96,108,113)" stroke-width="1" opacity="1" d="M 70.5 303 L 69.5 305 L 70.5 303 Z " />
  <path fill="rgb(96,108,113)" stroke="rgb(96,108,113)" stroke-width="1" opacity="1" d="M 68.5 306 L 65.5 310 L 68.5 306 Z " />
  <path fill="rgb(96,108,113)" stroke="rgb(96,108,113)" stroke-width="1" opacity="1" d="M 144.5 306 L 138.5 313 L 136.5 314 L 137.5 312 L 144.5 306 Z " />
  <path fill="rgb(96,108,113)" stroke="rgb(96,108,113)" stroke-width="1" opacity="1" d="M 508.5 307 L 509 356.5 L 513 360.5 L 508 356.5 L 508.5 307 Z " />
  <path fill="rgb(96,108,113)" stroke="rgb(96,108,113)" stroke-width="1" opacity="1" d="M 63.5 312 L 60.5 316 L 63.5 312 Z " />
  <path fill="rgb(96,108,113)" stroke="rgb(96,108,113)" stroke-width="1" opacity="1" d="M 59.5 317 L 58.5 319 L 59.5 317 Z " />
  <path fill="rgb(96,108,113)" stroke="rgb(96,108,113)" stroke-width="1" opacity="1" d="M 128.5 317 L 127.5 319 L 125.5 320 L 126.5 318 L 128.5 317 Z " />
  <path fill="rgb(96,108,113)" stroke="rgb(96,108,113)" stroke-width="1" opacity="1" d="M 150.5 319 L 149.5 321 L 150.5 319 Z " />
  <path fill="rgb(96,108,113)" stroke="rgb(96,108,113)" stroke-width="1" opacity="1" d="M 160.5 320 L 161.5 322 L 160.5 320 Z " />
  <path fill="rgb(96,108,113)" stroke="rgb(96,108,113)" stroke-width="1" opacity="1" d="M 145.5 322 L 144.5 324 L 145.5 322 Z " />
  <path fill="rgb(96,108,113)" stroke="rgb(96,108,113)" stroke-width="1" opacity="1" d="M 54.5 325 L 53.5 327 L 54.5 325 Z " />
  <path fill="rgb(96,108,113)" stroke="rgb(96,108,113)" stroke-width="1" opacity="1" d="M 163.5 325 L 165 327.5 L 164 327.5 L 163.5 325 Z " />
  <path fill="rgb(96,108,113)" stroke="rgb(96,108,113)" stroke-width="1" opacity="1" d="M 138.5 326 L 137.5 328 L 135.5 329 L 136.5 327 L 138.5 326 Z " />
  <path fill="rgb(96,108,113)" stroke="rgb(96,108,113)" stroke-width="1" opacity="1" d="M 34.5 330 L 33.5 332 L 34.5 330 Z " />
  <path fill="rgb(96,108,113)" stroke="rgb(96,108,113)" stroke-width="1" opacity="1" d="M 131.5 330 L 130.5 332 L 128.5 333 L 129.5 331 L 131.5 330 Z " />
  <path fill="rgb(96,108,113)" stroke="rgb(96,108,113)" stroke-width="1" opacity="1" d="M 165.5 331 L 166 335.5 L 165 335.5 L 165.5 331 Z " />
  <path fill="rgb(96,108,113)" stroke="rgb(96,108,113)" stroke-width="1" opacity="1" d="M 30.5 335 L 29.5 337 L 30.5 335 Z " />
  <path fill="rgb(96,108,113)" stroke="rgb(96,108,113)" stroke-width="1" opacity="1" d="M 53.5 335 L 54.5 337 L 53.5 335 Z " />
  <path fill="rgb(96,108,113)" stroke="rgb(96,108,113)" stroke-width="1" opacity="1" d="M 72.5 337 L 79 337.5 L 72.5 338 L 72.5 337 Z " />
  <path fill="rgb(96,108,113)" stroke="rgb(96,108,113)" stroke-width="1" opacity="1" d="M 58.5 338 L 65 338.5 L 58.5 339 L 58.5 338 Z " />
  <path fill="rgb(96,108,113)" stroke="rgb(96,108,113)" stroke-width="1" opacity="1" d="M 166.5 340 L 167 344.5 L 166 344.5 L 166.5 340 Z " />
  <path fill="rgb(96,108,113)" stroke="rgb(96,108,113)" stroke-width="1" opacity="1" d="M 25.5 341 L 23.5 344 L 25.5 341 Z " />
  <path fill="rgb(96,108,113)" stroke="rgb(96,108,113)" stroke-width="1" opacity="1" d="M 450.5 343 L 451 345.5 L 450 345.5 L 450.5 343 Z " />
  <path fill="rgb(96,108,113)" stroke="rgb(96,108,113)" stroke-width="1" opacity="1" d="M 18.5 349 L 15.5 353 L 18.5 349 Z " />
  <path fill="rgb(96,108,113)" stroke="rgb(96,108,113)" stroke-width="1" opacity="1" d="M 167.5 349 L 168 361.5 L 167 361.5 L 167.5 349 Z " />
  <path fill="rgb(96,108,113)" stroke="rgb(96,108,113)" stroke-width="1" opacity="1" d="M 352.5 350 L 353 352.5 L 352 352.5 L 352.5 350 Z " />
  <path fill="rgb(96,108,113)" stroke="rgb(96,108,113)" stroke-width="1" opacity="1" d="M 353.5 355 L 354 357.5 L 353 357.5 L 353.5 355 Z " />
  <path fill="rgb(96,108,113)" stroke="rgb(96,108,113)" stroke-width="1" opacity="1" d="M 10.5 356 L 9.5 358 L 10.5 356 Z " />
  <path fill="rgb(96,108,113)" stroke="rgb(96,108,113)" stroke-width="1" opacity="1" d="M 58.5 360 L 60 360.5 L 58 361 L 58 378.5 L 59 379.5 L 57 378.5 L 57 361.5 L 58.5 360 Z " />
  <path fill="rgb(96,108,113)" stroke="rgb(96,108,113)" stroke-width="1" opacity="1" d="M 354.5 360 L 355 362.5 L 354 362.5 L 354.5 360 Z " />
  <path fill="rgb(96,108,113)" stroke="rgb(96,108,113)" stroke-width="1" opacity="1" d="M 445.5 362 L 443.5 365 L 445.5 362 Z " />
  <path fill="rgb(96,108,113)" stroke="rgb(96,108,113)" stroke-width="1" opacity="1" d="M 164.5 363 L 160.5 368 L 164.5 363 Z " />
  <path fill="rgb(96,108,113)" stroke="rgb(96,108,113)" stroke-width="1" opacity="1" d="M 517.5 366 L 519 369 L 543.5 369 L 545 370.5 L 543.5 370 L 518.5 370 L 518 367.5 L 517.5 366 Z " />
  <path fill="rgb(96,108,113)" stroke="rgb(96,108,113)" stroke-width="1" opacity="1" d="M 441.5 367 L 439.5 370 L 441.5 367 Z " />
  <path fill="rgb(96,108,113)" stroke="rgb(96,108,113)" stroke-width="1" opacity="1" d="M 359.5 368 L 360.5 370 L 359.5 368 Z " />
  <path fill="rgb(96,108,113)" stroke="rgb(96,108,113)" stroke-width="1" opacity="1" d="M 236.5 370 L 237.5 372 L 236.5 370 Z " />
  <path fill="rgb(96,108,113)" stroke="rgb(96,108,113)" stroke-width="1" opacity="1" d="M 362.5 370 L 363.5 372 L 362.5 370 Z " />
  <path fill="rgb(96,108,113)" stroke="rgb(96,108,113)" stroke-width="1" opacity="1" d="M 365.5 372 L 366.5 374 L 365.5 372 Z " />
  <path fill="rgb(96,108,113)" stroke="rgb(96,108,113)" stroke-width="1" opacity="1" d="M 437.5 372 L 434.5 376 L 437.5 372 Z " />
  <path fill="rgb(96,108,113)" stroke="rgb(96,108,113)" stroke-width="1" opacity="1" d="M 1.5 373 L 2 393.5 L 1 393.5 L 1.5 373 Z " />
  <path fill="rgb(96,108,113)" stroke="rgb(96,108,113)" stroke-width="1" opacity="1" d="M 247.5 374 L 253 374.5 L 247.5 375 L 247.5 374 Z " />
  <path fill="rgb(96,108,113)" stroke="rgb(96,108,113)" stroke-width="1" opacity="1" d="M 369.5 375 L 370.5 377 L 369.5 375 Z " />
  <path fill="rgb(96,108,113)" stroke="rgb(96,108,113)" stroke-width="1" opacity="1" d="M 545.5 375 L 542.5 379 L 545.5 375 Z " />
  <path fill="rgb(96,108,113)" stroke="rgb(96,108,113)" stroke-width="1" opacity="1" d="M 432.5 378 L 433 380.5 L 432 380.5 L 432.5 378 Z " />
  <path fill="rgb(96,108,113)" stroke="rgb(96,108,113)" stroke-width="1" opacity="1" d="M 395.5 379 L 387.5 388 L 385.5 389 L 386.5 387 L 395.5 379 Z " />
  <path fill="rgb(96,108,113)" stroke="rgb(96,108,113)" stroke-width="1" opacity="1" d="M 59.5 381 L 67.5 390 L 59.5 381 Z " />
  <path fill="rgb(96,108,113)" stroke="rgb(96,108,113)" stroke-width="1" opacity="1" d="M 540.5 381 L 535.5 387 L 534 386.5 L 540.5 381 Z " />
  <path fill="rgb(96,108,113)" stroke="rgb(96,108,113)" stroke-width="1" opacity="1" d="M 263.5 383 L 260.5 387 L 263.5 383 Z " />
  <path fill="rgb(96,108,113)" stroke="rgb(96,108,113)" stroke-width="1" opacity="1" d="M 431.5 384 Q 431.9 389.1 436 390.5 L 431 386.5 L 431.5 384 Z " />
  <path fill="rgb(96,108,113)" stroke="rgb(96,108,113)" stroke-width="1" opacity="1" d="M 531.5 387 L 533 387.5 L 530.5 389 L 531.5 387 Z " />
  <path fill="rgb(96,108,113)" stroke="rgb(96,108,113)" stroke-width="1" opacity="1" d="M 140.5 389 L 141 391.5 L 140 391.5 L 140.5 389 Z " />
  <path fill="rgb(96,108,113)" stroke="rgb(96,108,113)" stroke-width="1" opacity="1" d="M 69.5 390 L 70.5 392 L 69.5 390 Z " />
  <path fill="rgb(96,108,113)" stroke="rgb(96,108,113)" stroke-width="1" opacity="1" d="M 529.5 390 L 528.5 392 L 529.5 390 Z " />
  <path fill="rgb(96,108,113)" stroke="rgb(96,108,113)" stroke-width="1" opacity="1" d="M 379.5 391 L 378.5 393 L 376.5 394 L 377.5 392 L 379.5 391 Z " />
  <path fill="rgb(96,108,113)" stroke="rgb(96,108,113)" stroke-width="1" opacity="1" d="M 103.5 392 L 107 392.5 L 103.5 393 L 103.5 392 Z " />
  <path fill="rgb(96,108,113)" stroke="rgb(96,108,113)" stroke-width="1" opacity="1" d="M 74.5 393 L 99 393.5 L 74.5 394 L 74.5 393 Z " />
  <path fill="rgb(96,108,113)" stroke="rgb(96,108,113)" stroke-width="1" opacity="1" d="M 247.5 393 L 243.5 398 L 240.5 399 L 241.5 397 L 243.5 397 L 247.5 393 Z " />
  <path fill="rgb(96,108,113)" stroke="rgb(96,108,113)" stroke-width="1" opacity="1" d="M 284.5 394 L 285.5 396 L 284.5 394 Z " />
  <path fill="rgb(96,108,113)" stroke="rgb(96,108,113)" stroke-width="1" opacity="1" d="M 374.5 394 L 371.5 398 L 374.5 394 Z " />
  <path fill="rgb(96,108,113)" stroke="rgb(96,108,113)" stroke-width="1" opacity="1" d="M 444.5 396 L 450.5 403 L 444.5 396 Z " />
  <path fill="rgb(96,108,113)" stroke="rgb(96,108,113)" stroke-width="1" opacity="1" d="M 289.5 397 L 293 402.5 L 290 400.5 L 289.5 397 Z " />
  <path fill="rgb(96,108,113)" stroke="rgb(96,108,113)" stroke-width="1" opacity="1" d="M 519.5 397 L 522 397.5 L 519.5 398 L 519.5 397 Z " />
  <path fill="rgb(96,108,113)" stroke="rgb(96,108,113)" stroke-width="1" opacity="1" d="M 369.5 398 L 365.5 403 L 369.5 398 Z " />
  <path fill="rgb(96,108,113)" stroke="rgb(96,108,113)" stroke-width="1" opacity="1" d="M 294.5 403 L 296.5 406 L 294.5 403 Z " />
  <path fill="rgb(96,108,113)" stroke="rgb(96,108,113)" stroke-width="1" opacity="1" d="M 512.5 403 L 516 403.5 L 512.5 404 L 512.5 403 Z " />
  <path fill="rgb(96,108,113)" stroke="rgb(96,108,113)" stroke-width="1" opacity="1" d="M 362.5 404 L 358.5 409 L 362.5 404 Z " />
  <path fill="rgb(96,108,113)" stroke="rgb(96,108,113)" stroke-width="1" opacity="1" d="M 453.5 404 L 458.5 410 L 453.5 404 Z " />
  <path fill="rgb(96,108,113)" stroke="rgb(96,108,113)" stroke-width="1" opacity="1" d="M 298.5 406 L 300.5 409 L 298.5 406 Z " />
  <path fill="rgb(96,108,113)" stroke="rgb(96,108,113)" stroke-width="1" opacity="1" d="M 302.5 409 L 304.5 412 L 302.5 409 Z " />
  <path fill="rgb(96,108,113)" stroke="rgb(96,108,113)" stroke-width="1" opacity="1" d="M 231.5 411 L 229.5 414 L 231.5 411 Z " />
  <path fill="rgb(96,108,113)" stroke="rgb(96,108,113)" stroke-width="1" opacity="1" d="M 462.5 412 L 466.5 417 L 462.5 412 Z " />
  <path fill="rgb(96,108,113)" stroke="rgb(96,108,113)" stroke-width="1" opacity="1" d="M 10.5 413 L 11.5 415 L 10.5 413 Z " />
  <path fill="rgb(96,108,113)" stroke="rgb(96,108,113)" stroke-width="1" opacity="1" d="M 502.5 414 L 505 414.5 L 502.5 415 L 502.5 414 Z " />
  <path fill="rgb(96,108,113)" stroke="rgb(96,108,113)" stroke-width="1" opacity="1" d="M 13.5 416 L 14.5 418 L 13.5 416 Z " />
  <path fill="rgb(96,108,113)" stroke="rgb(96,108,113)" stroke-width="1" opacity="1" d="M 226.5 417 L 225.5 419 L 226.5 417 Z " />
  <path fill="rgb(96,108,113)" stroke="rgb(96,108,113)" stroke-width="1" opacity="1" d="M 468.5 418 L 470.5 421 L 468.5 418 Z " />
  <path fill="rgb(96,108,113)" stroke="rgb(96,108,113)" stroke-width="1" opacity="1" d="M 17.5 419 L 18.5 421 L 17.5 419 Z " />
  <path fill="rgb(96,108,113)" stroke="rgb(96,108,113)" stroke-width="1" opacity="1" d="M 348.5 421 L 347.5 423 L 348.5 421 Z " />
  <path fill="rgb(96,108,113)" stroke="rgb(96,108,113)" stroke-width="1" opacity="1" d="M 21.5 422 L 22.5 424 L 21.5 422 Z " />
  <path fill="rgb(96,108,113)" stroke="rgb(96,108,113)" stroke-width="1" opacity="1" d="M 198.5 422 L 199.5 424 L 198.5 422 Z " />
  <path fill="rgb(96,108,113)" stroke="rgb(96,108,113)" stroke-width="1" opacity="1" d="M 221.5 423 L 220.5 425 L 221.5 423 Z " />
  <path fill="rgb(96,108,113)" stroke="rgb(96,108,113)" stroke-width="1" opacity="1" d="M 472.5 423 L 473.5 425 L 472.5 423 Z " />
  <path fill="rgb(96,108,113)" stroke="rgb(96,108,113)" stroke-width="1" opacity="1" d="M 346.5 425 L 344.5 428 L 342.5 429 L 343.5 427 L 346.5 425 Z " />
  <path fill="rgb(96,108,113)" stroke="rgb(96,108,113)" stroke-width="1" opacity="1" d="M 475.5 425 L 476.5 427 L 475.5 425 Z " />
  <path fill="rgb(96,108,113)" stroke="rgb(96,108,113)" stroke-width="1" opacity="1" d="M 41.5 429 L 44 429.5 L 41.5 430 L 41.5 429 Z " />
  <path fill="rgb(96,108,113)" stroke="rgb(96,108,113)" stroke-width="1" opacity="1" d="M 334.5 429 L 337 429.5 L 334.5 430 L 334.5 429 Z " />
  <path fill="rgb(255,255,255)" stroke="rgb(255,255,255)" stroke-width="1" opacity="1" d="M 0 0 L 344 0.5 L 329 11.5 Q 330.3 15.3 326.5 14 L 320.5 20 L 290 41.5 Q 291.3 45.3 287.5 44 L 281 52.5 L 284 59.5 L 294 72.5 L 294 361.5 L 292 371.5 L 284 380.5 L 281 387.5 L 285.5 396 L 290 398.5 Q 289.5 403.5 293.5 404 L 305.5 413 L 312 415 L 315.5 420 L 329.5 429 L 339.5 431 L 347 425.5 L 349.5 421 L 352 419.5 Q 356.1 410.1 363.5 404 Q 373.1 393.6 387.5 388 L 396 379.5 L 396 370.5 L 394.5 369 L 373.5 378 L 359 367.5 L 357.5 364 Q 353.3 365.3 355 360.5 L 353 354.5 L 353 14.5 L 354 13.5 L 354 5.5 L 353 0 L 546 0 L 546 370.5 L 543.5 369 L 519.5 369 L 519 366 L 517.5 366 L 513 364 Q 514 358 509 356.5 L 508 121.5 L 502.5 115 L 498.5 112 L 482 106 L 481 99.5 L 486 95.5 L 492 87 L 501 80.5 L 503 73.5 L 501 69.5 L 480.5 48 Q 477.3 43.7 469.5 44 L 466 46 L 464 52 L 460 52 L 460 53.5 L 458 58 L 454 58 L 454 59.5 L 451.5 63 Q 448.2 61.9 449 64.5 L 445 70.5 L 445 73.5 L 446 78.5 L 453.5 86 L 458 89.5 L 466 101.5 L 460 111.5 L 431 140.5 L 431 144.5 L 436.5 151 L 441 153.5 Q 439.9 156.8 442.5 156 L 446 158.5 L 446 162.5 L 450 172.5 L 450 346.5 L 445 362.5 L 432 378.5 L 431 386.5 Q 433.7 392.1 441 392 L 441 396 L 442.5 396 L 471 421.5 L 474.5 426 L 487.5 432 L 491.5 426 Q 494.8 427.1 494 424.5 L 496.5 421 L 500 419.5 L 502.5 415 Q 505.8 416.1 505 413.5 L 507 409 L 511 409 L 511 407.5 L 513.5 404 L 517 402.5 L 519.5 398 Q 522.8 399.1 522 396.5 L 524.5 393 Q 530.3 393.8 531 389.5 Q 530.3 387.3 532.5 388 Q 539.4 386.4 542 380.5 L 545.5 376 L 546 439 L 0 439 L 0 0 Z M 69 46 L 65 48 Q 62 47 63 51 L 66 52 L 67 56 L 88 71 Q 90 70 89 73 L 93 75 Q 96 74 95 78 L 99 80 Q 103 79 101 84 L 107 86 L 109 93 L 120 108 Q 119 114 122 117 L 122 137 Q 120 138 121 144 L 112 163 L 112 186 L 110 194 L 101 214 L 100 219 L 92 232 L 83 253 Q 76 261 72 273 Q 73 277 68 275 L 60 292 L 43 318 L 41 325 L 38 326 L 20 348 L 14 353 L 7 360 L 1 373 L 1 395 L 8 412 L 26 426 L 34 429 L 47 430 L 48 431 L 68 427 L 108 412 L 134 396 Q 137 397 135 393 L 141 393 L 141 390 L 144 390 L 167 378 L 176 378 L 182 388 L 189 410 L 196 421 Q 200 427 209 430 L 219 428 Q 228 414 240 404 L 241 398 L 244 398 Q 249 392 258 389 L 266 382 L 264 375 L 258 374 L 244 374 L 239 372 L 235 369 L 229 358 L 221 337 L 211 283 L 206 247 L 200 224 L 197 204 L 185 162 L 170 127 Q 164 113 155 103 L 152 103 L 152 98 L 150 98 L 146 92 Q 143 86 137 84 L 135 81 L 124 70 L 85 46 L 69 46 Z " />
  <path fill="rgb(255,255,255)" stroke="rgb(255,255,255)" stroke-width="1" opacity="1" d="M 127.5 192 L 130 193.5 L 130 195.5 Q 135.6 199.4 138 206.5 L 147 230.5 L 152 255.5 L 152 297.5 L 138.5 312 L 124.5 320 Q 100.1 326.6 79.5 337 L 58.5 338 L 54 336 L 54 326.5 Q 60.4 314.4 70 305.5 L 92 264.5 L 100 253.5 L 117 218.5 L 125 194.5 L 127.5 192 Z " />
  <path fill="rgb(255,255,255)" stroke="rgb(255,255,255)" stroke-width="1" opacity="1" d="M 151.5 319 L 159.5 320 L 161 321.5 L 165 329.5 L 165 337.5 L 167 347.5 L 167 362 L 156.5 370 L 110.5 391 L 100.5 393 L 73.5 393 L 60 381.5 L 58 378.5 L 58 361 L 118.5 338 L 151.5 319 Z " />
  <path fill="rgb(17,34,42)" stroke="rgb(17,34,42)" stroke-width="1" opacity="1" d="M 345.5 0 L 352 0 L 352 2.5 L 353 3.5 L 353 15.5 L 352 16.5 L 352 352.5 L 354 362.5 L 355.5 364 Q 359.3 362.8 358 366.5 L 360.5 370 L 370.5 377 L 375.5 378 L 394.5 370 Q 397.8 371.8 396 378.5 L 387.5 387 Q 369.7 394.7 358 408.5 L 349.5 421 L 347 422.5 Q 347.5 426.5 344.5 427 L 337.5 430 Q 336 427.5 330.5 429 L 313 418 Q 315.1 412.8 310.5 414 L 305.5 412 L 291 400.5 L 289.5 397 L 284 393.5 L 282 387.5 Q 284.6 378.1 292 373.5 L 295 360.5 L 295 72.5 L 284 58.5 L 282 52.5 L 287 44 Q 292.2 46.1 291 41.5 Q 310.6 30.1 326.5 15 L 330 15 L 330 11 L 331.5 11 L 345.5 0 Z " />
  <path fill="rgb(17,34,42)" stroke="rgb(17,34,42)" stroke-width="1" opacity="1" d="M 470.5 44 L 476.5 46 L 489 57.5 L 500 69.5 L 502 76.5 L 498.5 82 L 491 87 L 482.5 98 L 480 99.5 L 481 105.5 L 482.5 107 L 498.5 113 L 506 119.5 L 507 121.5 L 507 222.5 L 508 223.5 L 508 356.5 L 513 361.5 L 513 365 L 518 367.5 L 518.5 370 L 543.5 370 L 546 374.5 L 535.5 386 L 530 388.5 L 527.5 392 Q 523.8 391.3 523 393.5 L 522 397 Q 518.2 396.3 517 399.5 L 516 403 L 512 403 L 512 404.5 L 510 409 L 506 410.5 L 505 414 Q 501.2 413.3 500 416.5 L 499 420 L 495 420 L 495 421.5 L 493 426 L 489 427.5 L 488 431 Q 477.4 428.8 471 421.5 L 462.5 412 L 444.5 396 L 441 395 L 439.5 391 L 436.5 391 L 432 386.5 L 433 377.5 L 446 362.5 L 451 345.5 L 451 173.5 L 447 163.5 L 447 158.5 L 445.5 157 L 441 154.5 L 439.5 151 L 433 146.5 L 432 140.5 L 460 112.5 L 467 101.5 L 464 95.5 L 454.5 85 L 447 78.5 L 446 69.5 L 449 64 L 453 64 L 453 62.5 L 455 58 L 459 58 L 459 56.5 L 461.5 53 Q 464.8 54.1 464 51.5 L 467.5 46 L 470.5 44 Z " />
  <path fill="rgb(17,34,42)" stroke="rgb(17,34,42)" stroke-width="1" opacity="1" d="M 67.5 47 L 84.5 47 L 119.5 68 L 130.5 78 L 135 80 Q 134 83.8 136.5 85 L 138.5 85 L 146 92.5 L 148.5 98 L 152 99 L 152 104 L 154.5 104 Q 164.7 116.3 172 131.5 L 186 167.5 L 192 191.5 L 196 201.5 L 200 226.5 L 204 240.5 L 220 335.5 L 227 354.5 L 234 368.5 L 237.5 372 L 240.5 374 L 261.5 375 L 264 376 L 266 380.5 L 259.5 387 L 240 398.5 L 239 403.5 L 218.5 427 L 209.5 430 L 200 424.5 L 190 410.5 L 183 388.5 L 177 378 L 164.5 378 L 143.5 389 L 140 389 L 140 392 L 135 392 L 135 394.5 L 116.5 405 L 112.5 409 L 103.5 413 L 68.5 426 L 55.5 429 L 44.5 430 Q 42.8 427.3 36.5 429 L 27.5 426 L 12 416 Q 5.2 408 2 395.5 L 2 372.5 L 8 358 L 19 349.5 L 38.5 326 Q 41.8 327.1 41 324.5 L 43 318.5 L 69.5 276 Q 72.8 277.1 72 274.5 L 77 262.5 L 83 253.5 L 101 217.5 L 104 207.5 L 111 192.5 L 113 184.5 L 113 161.5 L 122 142.5 L 123 118.5 L 120 105.5 L 105.5 85 L 102 84 Q 102.8 80.2 99.5 79 L 96 78 L 94.5 74 Q 89.8 74.8 89 71.5 Q 89.8 68.9 86.5 70 Q 78.6 61.1 68 56 L 68 52 L 66.5 52 L 64 51 Q 62.3 46.9 66.5 48 L 67.5 47 Z M 127 192 L 124 195 L 117 217 L 99 254 L 87 272 L 71 303 Q 61 313 53 327 L 53 336 L 59 339 L 79 338 Q 99 328 124 321 L 139 313 L 152 299 L 152 252 L 148 232 Q 142 209 130 194 Q 131 190 127 192 Z M 151 319 L 120 337 L 79 352 L 57 362 L 57 379 L 59 382 Q 65 390 75 394 L 99 394 L 110 392 L 121 388 L 158 370 L 168 362 L 166 332 L 165 327 L 162 322 Q 159 318 151 319 Z " />
</svg>